<svg xmlns="http://www.w3.org/2000/svg" xmlns:xlink="http://www.w3.org/1999/xlink" width="500" zoomAndPan="magnify" viewBox="0 0 375 374.999991" height="500" preserveAspectRatio="xMidYMid meet" version="1.0"><defs><g/><clipPath id="b22ac4c9cb"><path d="M 106 165 L 138 165 L 138 187.847656 L 106 187.847656 Z M 106 165 " clip-rule="nonzero"/></clipPath><clipPath id="45e14e7633"><path d="M 237 165 L 269 165 L 269 187.847656 L 237 187.847656 Z M 237 165 " clip-rule="nonzero"/></clipPath><clipPath id="73ea5205b5"><path d="M 108 86.597656 L 267 86.597656 L 267 152 L 108 152 Z M 108 86.597656 " clip-rule="nonzero"/></clipPath><clipPath id="333b14f4d2"><path d="M 105.300781 129 L 269.550781 129 L 269.550781 185 L 105.300781 185 Z M 105.300781 129 " clip-rule="nonzero"/></clipPath></defs><g fill="#0a131e" fill-opacity="1"><g transform="translate(46.570314, 246.896806)"><g><path d="M 0.191406 0 L 8.320312 0 L 9.765625 -3.761719 L 18.84375 -3.761719 L 20.289062 0 L 28.457031 0 L 18.125 -26.597656 L 10.523438 -26.597656 Z M 11.359375 -9.382812 L 14.324219 -17.628906 L 17.289062 -9.382812 Z M 11.359375 -9.382812 "/></g></g></g><g fill="#0a131e" fill-opacity="1"><g transform="translate(75.216465, 246.896806)"><g><path d="M 14.25 0.570312 C 21.429688 0.570312 25.875 -3.800781 25.875 -10.941406 L 25.875 -26.597656 L 18.238281 -26.597656 L 18.238281 -11.4375 C 18.238281 -8.28125 16.90625 -6.609375 14.25 -6.609375 C 11.589844 -6.609375 10.257812 -8.28125 10.257812 -11.4375 L 10.257812 -26.597656 L 2.582031 -26.597656 L 2.582031 -10.941406 C 2.582031 -3.800781 7.066406 0.570312 14.25 0.570312 Z M 14.25 0.570312 "/></g></g></g><g fill="#0a131e" fill-opacity="1"><g transform="translate(103.710637, 246.896806)"><g><path d="M 9.15625 0 L 16.792969 0 L 16.792969 -19.492188 L 24.886719 -19.492188 L 24.886719 -26.597656 L 1.0625 -26.597656 L 1.0625 -19.492188 L 9.15625 -19.492188 Z M 9.15625 0 "/></g></g></g><g fill="#0a131e" fill-opacity="1"><g transform="translate(129.659336, 246.896806)"><g><path d="M 15.769531 0.570312 C 24.242188 0.570312 30.242188 -5.167969 30.242188 -13.296875 C 30.242188 -21.429688 24.242188 -27.167969 15.769531 -27.167969 C 7.296875 -27.167969 1.292969 -21.429688 1.292969 -13.296875 C 1.292969 -5.167969 7.296875 0.570312 15.769531 0.570312 Z M 9.082031 -13.296875 C 9.082031 -17.289062 11.855469 -20.0625 15.769531 -20.0625 C 19.71875 -20.0625 22.453125 -17.289062 22.453125 -13.296875 C 22.453125 -9.308594 19.71875 -6.535156 15.769531 -6.535156 C 11.855469 -6.535156 9.082031 -9.308594 9.082031 -13.296875 Z M 9.082031 -13.296875 "/></g></g></g><g fill="#0a131e" fill-opacity="1"><g transform="translate(161.230882, 246.896806)"><g/></g></g><g fill="#0a131e" fill-opacity="1"><g transform="translate(170.007093, 246.896806)"><g><path d="M 2.8125 0 L 10.410156 0 L 10.410156 -13.488281 L 15.539062 -6.308594 L 20.515625 -6.308594 L 25.609375 -13.449219 L 25.609375 0 L 33.207031 0 L 33.207031 -26.597656 L 26.976562 -26.597656 L 18.007812 -13.945312 L 9.082031 -26.597656 L 2.8125 -26.597656 Z M 2.8125 0 "/></g></g></g><g fill="#0a131e" fill-opacity="1"><g transform="translate(206.02373, 246.896806)"><g><path d="M 15.769531 0.570312 C 24.242188 0.570312 30.242188 -5.167969 30.242188 -13.296875 C 30.242188 -21.429688 24.242188 -27.167969 15.769531 -27.167969 C 7.296875 -27.167969 1.292969 -21.429688 1.292969 -13.296875 C 1.292969 -5.167969 7.296875 0.570312 15.769531 0.570312 Z M 9.082031 -13.296875 C 9.082031 -17.289062 11.855469 -20.0625 15.769531 -20.0625 C 19.71875 -20.0625 22.453125 -17.289062 22.453125 -13.296875 C 22.453125 -9.308594 19.71875 -6.535156 15.769531 -6.535156 C 11.855469 -6.535156 9.082031 -9.308594 9.082031 -13.296875 Z M 9.082031 -13.296875 "/></g></g></g><g fill="#0a131e" fill-opacity="1"><g transform="translate(237.595276, 246.896806)"><g><path d="M 2.8125 0 L 10.410156 0 L 10.410156 -13.5625 L 20.515625 0 L 26.75 0 L 26.75 -26.597656 L 19.1875 -26.597656 L 19.1875 -13.109375 L 9.082031 -26.597656 L 2.8125 -26.597656 Z M 2.8125 0 "/></g></g></g><g fill="#0a131e" fill-opacity="1"><g transform="translate(267.19124, 246.896806)"><g><path d="M 2.8125 0 L 14.097656 0 C 22.683594 0 28.382812 -5.28125 28.382812 -13.296875 C 28.382812 -21.277344 22.683594 -26.597656 14.097656 -26.597656 L 2.8125 -26.597656 Z M 10.488281 -6.878906 L 10.488281 -19.71875 L 13.867188 -19.71875 C 17.933594 -19.71875 20.554688 -17.210938 20.554688 -13.296875 C 20.554688 -9.382812 17.933594 -6.878906 13.867188 -6.878906 Z M 10.488281 -6.878906 "/></g></g></g><g fill="#0a131e" fill-opacity="1"><g transform="translate(296.863182, 246.896806)"><g><path d="M 15.769531 0.570312 C 24.242188 0.570312 30.242188 -5.167969 30.242188 -13.296875 C 30.242188 -21.429688 24.242188 -27.167969 15.769531 -27.167969 C 7.296875 -27.167969 1.292969 -21.429688 1.292969 -13.296875 C 1.292969 -5.167969 7.296875 0.570312 15.769531 0.570312 Z M 9.082031 -13.296875 C 9.082031 -17.289062 11.855469 -20.0625 15.769531 -20.0625 C 19.71875 -20.0625 22.453125 -17.289062 22.453125 -13.296875 C 22.453125 -9.308594 19.71875 -6.535156 15.769531 -6.535156 C 11.855469 -6.535156 9.082031 -9.308594 9.082031 -13.296875 Z M 9.082031 -13.296875 "/></g></g></g><g fill="#0a131e" fill-opacity="1"><g transform="translate(42.082853, 270.461759)"><g><path d="M 3.234375 -8.734375 L 4.25 -2.09375 L 4.328125 -2.09375 L 7.546875 -8.734375 L 9.59375 -8.734375 L 5.125 0 L 2.75 0 L 1.1875 -8.734375 Z M 3.234375 -8.734375 "/></g></g></g><g fill="#0a131e" fill-opacity="1"><g transform="translate(58.620471, 270.461759)"><g><path d="M 0.21875 0 L 1.65625 -8.734375 L 7.546875 -8.734375 L 7.28125 -7.203125 L 3.25 -7.203125 L 2.90625 -5.125 L 6.640625 -5.125 L 6.390625 -3.609375 L 2.65625 -3.609375 L 2.3125 -1.515625 L 6.359375 -1.515625 L 6.109375 0 Z M 0.21875 0 "/></g></g></g><g fill="#0a131e" fill-opacity="1"><g transform="translate(73.536096, 270.461759)"><g><path d="M 8.96875 -8.734375 L 7.515625 0 L 5.921875 0 L 3.046875 -5.5 L 2.96875 -5.5 L 2.0625 0 L 0.21875 0 L 1.65625 -8.734375 L 3.28125 -8.734375 L 6.140625 -3.234375 L 6.21875 -3.234375 L 7.125 -8.734375 Z M 8.96875 -8.734375 "/></g></g></g><g fill="#0a131e" fill-opacity="1"><g transform="translate(89.920455, 270.461759)"><g><path d="M 3.34375 0 L 0.21875 0 L 1.65625 -8.734375 L 4.734375 -8.734375 C 5.617188 -8.734375 6.347656 -8.550781 6.921875 -8.1875 C 7.503906 -7.832031 7.914062 -7.320312 8.15625 -6.65625 C 8.394531 -5.988281 8.4375 -5.191406 8.28125 -4.265625 C 8.132812 -3.378906 7.835938 -2.613281 7.390625 -1.96875 C 6.953125 -1.332031 6.390625 -0.84375 5.703125 -0.5 C 5.015625 -0.164062 4.226562 0 3.34375 0 Z M 2.328125 -1.578125 L 3.453125 -1.578125 C 4.273438 -1.578125 4.941406 -1.8125 5.453125 -2.28125 C 5.972656 -2.75 6.316406 -3.476562 6.484375 -4.46875 C 6.640625 -5.414062 6.546875 -6.097656 6.203125 -6.515625 C 5.859375 -6.929688 5.28125 -7.140625 4.46875 -7.140625 L 3.25 -7.140625 Z M 2.328125 -1.578125 "/></g></g></g><g fill="#0a131e" fill-opacity="1"><g transform="translate(106.211156, 270.461759)"><g><path d="M 3.5 -8.734375 L 2.0625 0 L 0.21875 0 L 1.65625 -8.734375 Z M 3.5 -8.734375 "/></g></g></g><g fill="#0a131e" fill-opacity="1"><g transform="translate(117.1463, 270.461759)"><g><path d="M 1.078125 -7.203125 L 1.328125 -8.734375 L 8.5 -8.734375 L 8.234375 -7.203125 L 5.5625 -7.203125 L 4.375 0 L 2.546875 0 L 3.75 -7.203125 Z M 1.078125 -7.203125 "/></g></g></g><g fill="#0a131e" fill-opacity="1"><g transform="translate(132.730308, 270.461759)"><g><path d="M 1.71875 0 L -0.265625 0 L 4.203125 -8.734375 L 6.578125 -8.734375 L 8.140625 0 L 6.15625 0 L 5.84375 -1.984375 L 2.703125 -1.984375 Z M 3.40625 -3.4375 L 5.625 -3.4375 L 5.09375 -6.734375 L 5.03125 -6.734375 Z M 3.40625 -3.4375 "/></g></g></g><g fill="#0a131e" fill-opacity="1"><g transform="translate(149.267924, 270.461759)"><g><path d="M 2.84375 0.125 C 2.238281 0.125 1.734375 0.015625 1.328125 -0.203125 C 0.929688 -0.421875 0.644531 -0.710938 0.46875 -1.078125 C 0.300781 -1.441406 0.253906 -1.851562 0.328125 -2.3125 C 0.410156 -2.820312 0.625 -3.25 0.96875 -3.59375 C 1.320312 -3.9375 1.765625 -4.269531 2.296875 -4.59375 C 2.117188 -4.882812 1.972656 -5.191406 1.859375 -5.515625 C 1.753906 -5.847656 1.734375 -6.207031 1.796875 -6.59375 C 1.867188 -7.019531 2.03125 -7.398438 2.28125 -7.734375 C 2.53125 -8.078125 2.847656 -8.347656 3.234375 -8.546875 C 3.628906 -8.742188 4.066406 -8.84375 4.546875 -8.84375 C 5.015625 -8.84375 5.398438 -8.75 5.703125 -8.5625 C 6.015625 -8.375 6.234375 -8.125 6.359375 -7.8125 C 6.492188 -7.5 6.53125 -7.15625 6.46875 -6.78125 C 6.40625 -6.375 6.242188 -6.003906 5.984375 -5.671875 C 5.722656 -5.335938 5.390625 -5.035156 4.984375 -4.765625 L 4.40625 -4.390625 L 5.5625 -2.75 C 5.71875 -2.957031 5.847656 -3.1875 5.953125 -3.4375 C 6.066406 -3.695312 6.144531 -3.96875 6.1875 -4.25 L 7.6875 -4.25 C 7.59375 -3.65625 7.4375 -3.128906 7.21875 -2.671875 C 7.007812 -2.210938 6.753906 -1.820312 6.453125 -1.5 L 7.515625 0 L 5.609375 0 L 5.1875 -0.59375 C 4.832031 -0.34375 4.445312 -0.160156 4.03125 -0.046875 C 3.613281 0.0664062 3.21875 0.125 2.84375 0.125 Z M 4.390625 -1.671875 L 3.046875 -3.53125 L 2.984375 -3.484375 C 2.453125 -3.128906 2.15625 -2.773438 2.09375 -2.421875 C 2.050781 -2.109375 2.125 -1.847656 2.3125 -1.640625 C 2.507812 -1.429688 2.796875 -1.328125 3.171875 -1.328125 C 3.566406 -1.328125 3.972656 -1.441406 4.390625 -1.671875 Z M 3.703125 -5.4375 L 4.203125 -5.734375 C 4.660156 -5.992188 4.925781 -6.3125 5 -6.6875 C 5.03125 -6.851562 4.988281 -7.007812 4.875 -7.15625 C 4.757812 -7.300781 4.570312 -7.375 4.3125 -7.375 C 4.0625 -7.375 3.84375 -7.296875 3.65625 -7.140625 C 3.46875 -6.984375 3.359375 -6.796875 3.328125 -6.578125 C 3.304688 -6.390625 3.332031 -6.203125 3.40625 -6.015625 C 3.476562 -5.835938 3.578125 -5.644531 3.703125 -5.4375 Z M 3.703125 -5.4375 "/></g></g></g><g fill="#0a131e" fill-opacity="1"><g transform="translate(164.920042, 270.461759)"><g><path d="M 5.96875 -6.1875 C 5.976562 -6.539062 5.875 -6.8125 5.65625 -7 C 5.4375 -7.195312 5.109375 -7.296875 4.671875 -7.296875 C 4.210938 -7.296875 3.847656 -7.203125 3.578125 -7.015625 C 3.304688 -6.835938 3.148438 -6.609375 3.109375 -6.328125 C 3.046875 -6.015625 3.140625 -5.773438 3.390625 -5.609375 C 3.640625 -5.453125 3.945312 -5.332031 4.3125 -5.25 L 5.0625 -5.0625 C 5.539062 -4.945312 5.957031 -4.78125 6.3125 -4.5625 C 6.675781 -4.34375 6.941406 -4.0625 7.109375 -3.71875 C 7.285156 -3.382812 7.332031 -2.976562 7.25 -2.5 C 7.113281 -1.695312 6.707031 -1.054688 6.03125 -0.578125 C 5.363281 -0.109375 4.5 0.125 3.4375 0.125 C 2.375 0.125 1.566406 -0.113281 1.015625 -0.59375 C 0.460938 -1.082031 0.253906 -1.796875 0.390625 -2.734375 L 2.171875 -2.734375 C 2.128906 -2.296875 2.242188 -1.96875 2.515625 -1.75 C 2.796875 -1.53125 3.179688 -1.421875 3.671875 -1.421875 C 4.140625 -1.421875 4.53125 -1.519531 4.84375 -1.71875 C 5.15625 -1.914062 5.335938 -2.175781 5.390625 -2.5 C 5.441406 -2.789062 5.347656 -3.015625 5.109375 -3.171875 C 4.878906 -3.335938 4.535156 -3.476562 4.078125 -3.59375 L 3.171875 -3.828125 C 2.472656 -4.003906 1.941406 -4.28125 1.578125 -4.65625 C 1.210938 -5.039062 1.082031 -5.554688 1.1875 -6.203125 C 1.28125 -6.734375 1.5 -7.195312 1.84375 -7.59375 C 2.195312 -7.988281 2.640625 -8.296875 3.171875 -8.515625 C 3.710938 -8.734375 4.300781 -8.84375 4.9375 -8.84375 C 5.582031 -8.84375 6.128906 -8.726562 6.578125 -8.5 C 7.023438 -8.28125 7.347656 -7.972656 7.546875 -7.578125 C 7.753906 -7.179688 7.816406 -6.71875 7.734375 -6.1875 Z M 5.96875 -6.1875 "/></g></g></g><g fill="#0a131e" fill-opacity="1"><g transform="translate(180.342271, 270.461759)"><g><path d="M 0.21875 0 L 1.65625 -8.734375 L 7.546875 -8.734375 L 7.28125 -7.203125 L 3.25 -7.203125 L 2.90625 -5.125 L 6.640625 -5.125 L 6.390625 -3.609375 L 2.65625 -3.609375 L 2.3125 -1.515625 L 6.359375 -1.515625 L 6.109375 0 Z M 0.21875 0 "/></g></g></g><g fill="#0a131e" fill-opacity="1"><g transform="translate(195.257892, 270.461759)"><g><path d="M 0.21875 0 L 1.65625 -8.734375 L 5.109375 -8.734375 C 6.097656 -8.734375 6.820312 -8.472656 7.28125 -7.953125 C 7.738281 -7.429688 7.898438 -6.738281 7.765625 -5.875 C 7.660156 -5.28125 7.4375 -4.769531 7.09375 -4.34375 C 6.757812 -3.925781 6.328125 -3.609375 5.796875 -3.390625 L 7.09375 0 L 5.0625 0 L 3.921875 -3.09375 L 2.578125 -3.09375 L 2.0625 0 Z M 2.828125 -4.578125 L 4.078125 -4.578125 C 5.117188 -4.578125 5.710938 -5.007812 5.859375 -5.875 C 6.003906 -6.769531 5.554688 -7.21875 4.515625 -7.21875 L 3.265625 -7.21875 Z M 2.828125 -4.578125 "/></g></g></g><g fill="#0a131e" fill-opacity="1"><g transform="translate(210.769523, 270.461759)"><g><path d="M 3.234375 -8.734375 L 4.25 -2.09375 L 4.328125 -2.09375 L 7.546875 -8.734375 L 9.59375 -8.734375 L 5.125 0 L 2.75 0 L 1.1875 -8.734375 Z M 3.234375 -8.734375 "/></g></g></g><g fill="#0a131e" fill-opacity="1"><g transform="translate(227.307139, 270.461759)"><g><path d="M 3.5 -8.734375 L 2.0625 0 L 0.21875 0 L 1.65625 -8.734375 Z M 3.5 -8.734375 "/></g></g></g><g fill="#0a131e" fill-opacity="1"><g transform="translate(238.242288, 270.461759)"><g><path d="M 0.125 0 L 0.3125 -1.09375 L 5.6875 -7.203125 L 1.296875 -7.203125 L 1.5625 -8.734375 L 8.234375 -8.734375 L 8.0625 -7.625 L 2.6875 -1.515625 L 7.0625 -1.515625 L 6.796875 0 Z M 0.125 0 "/></g></g></g><g fill="#0a131e" fill-opacity="1"><g transform="translate(253.809273, 270.461759)"><g><path d="M 3.5 -8.734375 L 2.0625 0 L 0.21875 0 L 1.65625 -8.734375 Z M 3.5 -8.734375 "/></g></g></g><g fill="#0a131e" fill-opacity="1"><g transform="translate(264.744422, 270.461759)"><g/></g></g><g fill="#0a131e" fill-opacity="1"><g transform="translate(275.096335, 270.461759)"><g><path d="M 1.71875 0 L -0.265625 0 L 4.203125 -8.734375 L 6.578125 -8.734375 L 8.140625 0 L 6.15625 0 L 5.84375 -1.984375 L 2.703125 -1.984375 Z M 3.40625 -3.4375 L 5.625 -3.4375 L 5.09375 -6.734375 L 5.03125 -6.734375 Z M 3.40625 -3.4375 "/></g></g></g><g fill="#0a131e" fill-opacity="1"><g transform="translate(291.633962, 270.461759)"><g><path d="M 7.0625 -8.734375 L 8.890625 -8.734375 L 7.9375 -2.953125 C 7.832031 -2.296875 7.585938 -1.738281 7.203125 -1.28125 C 6.816406 -0.820312 6.328125 -0.472656 5.734375 -0.234375 C 5.148438 0.00390625 4.507812 0.125 3.8125 0.125 C 3.101562 0.125 2.5 0.00390625 2 -0.234375 C 1.5 -0.472656 1.128906 -0.820312 0.890625 -1.28125 C 0.660156 -1.738281 0.597656 -2.296875 0.703125 -2.953125 L 1.65625 -8.734375 L 3.5 -8.734375 L 2.5625 -3.015625 C 2.488281 -2.554688 2.59375 -2.191406 2.875 -1.921875 C 3.164062 -1.648438 3.566406 -1.515625 4.078125 -1.515625 C 4.585938 -1.515625 5.035156 -1.648438 5.421875 -1.921875 C 5.804688 -2.191406 6.039062 -2.554688 6.125 -3.015625 Z M 7.0625 -8.734375 "/></g></g></g><g fill="#0a131e" fill-opacity="1"><g transform="translate(307.950215, 270.461759)"><g><path d="M 1.078125 -7.203125 L 1.328125 -8.734375 L 8.5 -8.734375 L 8.234375 -7.203125 L 5.5625 -7.203125 L 4.375 0 L 2.546875 0 L 3.75 -7.203125 Z M 1.078125 -7.203125 "/></g></g></g><g fill="#0a131e" fill-opacity="1"><g transform="translate(323.534229, 270.461759)"><g><path d="M 8.9375 -4.25 C 8.78125 -3.3125 8.472656 -2.515625 8.015625 -1.859375 C 7.554688 -1.210938 7 -0.71875 6.34375 -0.375 C 5.695312 -0.0390625 4.992188 0.125 4.234375 0.125 C 3.441406 0.125 2.757812 -0.0546875 2.1875 -0.421875 C 1.613281 -0.785156 1.195312 -1.304688 0.9375 -1.984375 C 0.6875 -2.671875 0.640625 -3.5 0.796875 -4.46875 C 0.953125 -5.394531 1.257812 -6.179688 1.71875 -6.828125 C 2.175781 -7.484375 2.734375 -7.984375 3.390625 -8.328125 C 4.046875 -8.671875 4.753906 -8.84375 5.515625 -8.84375 C 6.304688 -8.84375 6.984375 -8.660156 7.546875 -8.296875 C 8.117188 -7.929688 8.53125 -7.40625 8.78125 -6.71875 C 9.039062 -6.039062 9.09375 -5.21875 8.9375 -4.25 Z M 7.109375 -4.46875 C 7.253906 -5.363281 7.171875 -6.046875 6.859375 -6.515625 C 6.554688 -6.984375 6.085938 -7.21875 5.453125 -7.21875 C 4.742188 -7.21875 4.132812 -6.957031 3.625 -6.4375 C 3.113281 -5.914062 2.785156 -5.1875 2.640625 -4.25 C 2.484375 -3.34375 2.5625 -2.660156 2.875 -2.203125 C 3.1875 -1.742188 3.660156 -1.515625 4.296875 -1.515625 C 4.992188 -1.515625 5.597656 -1.769531 6.109375 -2.28125 C 6.617188 -2.789062 6.953125 -3.519531 7.109375 -4.46875 Z M 7.109375 -4.46875 "/></g></g></g><path fill="#0a131e" d="M 117.859375 147.894531 C 124.40625 150.375 134.355469 151.988281 137.5 152.175781 C 140.640625 152.363281 141.328125 151.617188 141.328125 151.617188 C 131.195312 149.691406 112.042969 142.679688 112.042969 142.679688 C 112.042969 142.679688 111.308594 145.414062 117.859375 147.894531 Z M 117.859375 147.894531 " fill-opacity="1" fill-rule="nonzero"/><path fill="#0a131e" d="M 262.792969 142.683594 C 262.792969 142.683594 243.644531 149.695312 233.507812 151.617188 C 233.507812 151.617188 234.191406 152.363281 237.339844 152.179688 C 240.492188 151.996094 250.433594 150.378906 256.980469 147.898438 C 263.523438 145.417969 262.792969 142.683594 262.792969 142.683594 Z M 262.792969 142.683594 " fill-opacity="1" fill-rule="nonzero"/><g clip-path="url(#b22ac4c9cb)"><path fill="#0a131e" d="M 106.800781 165.207031 L 107.234375 182.917969 C 107.238281 183.242188 107.269531 183.5625 107.332031 183.878906 C 107.394531 184.195312 107.488281 184.503906 107.609375 184.804688 C 107.734375 185.101562 107.886719 185.386719 108.0625 185.65625 C 108.242188 185.921875 108.445312 186.171875 108.675781 186.402344 C 108.902344 186.628906 109.148438 186.832031 109.417969 187.015625 C 109.683594 187.195312 109.96875 187.34375 110.265625 187.46875 C 110.5625 187.59375 110.867188 187.6875 111.183594 187.75 C 111.5 187.816406 111.820312 187.847656 112.140625 187.847656 L 132.308594 187.847656 C 132.660156 187.847656 133.003906 187.8125 133.347656 187.746094 C 133.6875 187.675781 134.019531 187.574219 134.34375 187.441406 C 134.664062 187.304688 134.972656 187.140625 135.261719 186.949219 C 135.550781 186.753906 135.820312 186.53125 136.066406 186.285156 C 136.3125 186.035156 136.53125 185.765625 136.726562 185.476562 C 136.921875 185.183594 137.085938 184.875 137.21875 184.550781 C 137.351562 184.230469 137.453125 183.894531 137.519531 183.550781 C 137.589844 183.207031 137.621094 182.859375 137.621094 182.511719 C 137.621094 182.511719 123.789062 180.65625 115.199219 176.996094 C 108.390625 174.09375 106.800781 165.207031 106.800781 165.207031 Z M 106.800781 165.207031 " fill-opacity="1" fill-rule="nonzero"/></g><g clip-path="url(#45e14e7633)"><path fill="#0a131e" d="M 259.648438 176.996094 C 251.058594 180.65625 237.222656 182.519531 237.222656 182.519531 C 237.222656 182.867188 237.257812 183.214844 237.328125 183.558594 C 237.394531 183.902344 237.496094 184.234375 237.628906 184.558594 C 237.761719 184.878906 237.925781 185.1875 238.121094 185.480469 C 238.3125 185.769531 238.535156 186.039062 238.78125 186.285156 C 239.027344 186.535156 239.296875 186.753906 239.585938 186.949219 C 239.875 187.144531 240.179688 187.308594 240.503906 187.441406 C 240.824219 187.574219 241.15625 187.675781 241.496094 187.746094 C 241.839844 187.8125 242.183594 187.847656 242.53125 187.847656 L 262.707031 187.847656 C 263.027344 187.847656 263.347656 187.816406 263.664062 187.753906 C 263.980469 187.691406 264.289062 187.597656 264.585938 187.472656 C 264.882812 187.347656 265.167969 187.195312 265.4375 187.015625 C 265.703125 186.835938 265.953125 186.632812 266.179688 186.402344 C 266.410156 186.171875 266.613281 185.925781 266.792969 185.65625 C 266.972656 185.386719 267.121094 185.101562 267.246094 184.800781 C 267.371094 184.503906 267.460938 184.195312 267.523438 183.875 C 267.589844 183.558594 267.621094 183.238281 267.621094 182.914062 L 268.054688 165.199219 C 268.054688 165.199219 266.453125 174.09375 259.648438 176.996094 Z M 259.648438 176.996094 " fill-opacity="1" fill-rule="nonzero"/></g><path fill="#0a131e" d="M 187.421875 174.445312 C 169.707031 174.734375 154.433594 169.609375 154.433594 169.609375 C 167.304688 176.558594 187.421875 176.515625 187.421875 176.515625 C 187.421875 176.515625 207.53125 176.5625 220.414062 169.609375 C 220.414062 169.613281 205.640625 174.632812 187.421875 174.445312 Z M 187.421875 174.445312 " fill-opacity="1" fill-rule="nonzero"/><path fill="#0a131e" d="M 214.480469 164.835938 C 205.339844 168.101562 187.421875 168.210938 187.421875 168.210938 C 187.421875 168.210938 169.503906 168.101562 160.363281 164.828125 C 151.980469 161.828125 145.414062 155.09375 145.414062 155.09375 C 145.414062 155.09375 151.960938 163.28125 159.746094 166.511719 C 167.535156 169.738281 187.421875 170.109375 187.421875 170.109375 C 187.421875 170.109375 207.316406 169.734375 215.097656 166.511719 C 222.882812 163.285156 229.433594 155.09375 229.433594 155.09375 C 229.433594 155.09375 222.867188 161.828125 214.480469 164.835938 Z M 214.480469 164.835938 " fill-opacity="1" fill-rule="nonzero"/><path fill="#0a131e" d="M 187.421875 164.378906 C 187.421875 164.378906 207.316406 164.003906 215.097656 160.78125 C 219.691406 158.878906 223.847656 155.25 226.492188 152.59375 C 226.148438 152.664062 225.6875 152.753906 225.5 152.796875 C 222.785156 154.917969 218.882812 157.527344 214.480469 159.105469 C 205.34375 162.371094 187.425781 162.480469 187.425781 162.480469 C 187.425781 162.480469 169.503906 162.371094 160.367188 159.097656 C 155.957031 157.523438 152.054688 154.914062 149.34375 152.796875 C 149.015625 152.738281 148.683594 152.667969 148.355469 152.59375 C 150.996094 155.25 155.152344 158.878906 159.746094 160.78125 C 167.535156 164.007812 187.421875 164.378906 187.421875 164.378906 Z M 187.421875 164.378906 " fill-opacity="1" fill-rule="nonzero"/><g clip-path="url(#73ea5205b5)"><path fill="#0a131e" d="M 116.621094 135.796875 C 123.667969 139.300781 151.035156 151.683594 187.421875 151.617188 C 223.8125 151.679688 251.179688 139.300781 258.226562 135.796875 C 264.738281 132.554688 267.492188 129.277344 266.191406 125.558594 C 264.894531 121.835938 255.257812 116.621094 255.257812 116.621094 C 255.257812 116.621094 254.144531 115.503906 245.25 115.132812 C 245.25 115.132812 245 114.714844 244.566406 113.992188 C 245.503906 114.144531 246.417969 114.367188 247.316406 114.667969 C 253.527344 116.621094 261.035156 113.457031 260.386719 110.203125 C 259.742188 106.945312 252.230469 105.640625 248.804688 106.292969 C 245.375 106.941406 245.28125 111.039062 245.28125 111.039062 L 242.753906 111.039062 C 239.535156 105.882812 233.835938 97.210938 229.558594 93.171875 C 223.257812 87.210938 217.199219 86.964844 187.421875 86.597656 C 157.644531 86.972656 151.589844 87.21875 145.289062 93.171875 C 141.011719 97.21875 135.316406 105.882812 132.09375 111.042969 L 129.566406 111.042969 C 129.566406 111.042969 129.472656 106.945312 126.042969 106.296875 C 122.613281 105.644531 115.109375 106.953125 114.457031 110.207031 C 113.808594 113.457031 121.316406 116.625 127.53125 114.671875 C 128.429688 114.371094 129.34375 114.148438 130.28125 113.996094 C 129.84375 114.71875 129.597656 115.140625 129.597656 115.140625 C 120.707031 115.503906 119.589844 116.621094 119.589844 116.621094 C 119.585938 116.621094 109.960938 121.832031 108.648438 125.558594 C 107.339844 129.28125 110.109375 132.554688 116.621094 135.796875 Z M 146.582031 122.757812 C 146.859375 125.738281 148.339844 134.113281 148.339844 134.113281 L 143.429688 118.664062 L 149.730469 118.664062 C 149.730469 118.664062 146.300781 119.785156 146.582031 122.757812 Z M 187.421875 149.933594 C 187.421875 149.933594 168.515625 148.738281 154.0625 143.84375 C 154.0625 143.84375 176.117188 146.398438 187.421875 145.835938 C 198.726562 146.398438 220.785156 143.84375 220.785156 143.84375 C 206.328125 148.75 187.421875 149.933594 187.421875 149.933594 Z M 227.917969 134.109375 C 227.917969 134.109375 229.402344 125.734375 229.679688 122.757812 C 229.957031 119.777344 226.527344 118.660156 226.527344 118.660156 L 232.835938 118.660156 Z M 149.980469 93.097656 C 155.257812 89.808594 162.601562 89.023438 187.421875 89.023438 C 210.09375 89.023438 220.242188 89.734375 224.765625 93.023438 C 231.09375 96.746094 237.253906 108.191406 242.726562 116.882812 L 187.421875 118.113281 L 132.3125 116.882812 C 137.78125 108.191406 143.648438 96.832031 149.980469 93.097656 Z M 149.980469 93.097656 " fill-opacity="1" fill-rule="nonzero"/></g><g clip-path="url(#333b14f4d2)"><path fill="#0a131e" d="M 267.332031 129.476562 C 266.839844 134.535156 259.984375 137.335938 242.191406 143.855469 C 218.328125 152.597656 187.417969 152.921875 187.417969 152.921875 C 187.417969 152.921875 156.515625 152.597656 132.648438 143.855469 C 114.859375 137.335938 108.011719 134.535156 107.511719 129.476562 C 107.511719 129.476562 105.316406 132.304688 105.625 142.933594 C 105.964844 154.597656 105.996094 169.363281 114.523438 174.824219 C 120.867188 178.890625 142.257812 182.261719 153.097656 182.292969 C 153.101562 182.292969 153.105469 182.292969 153.109375 182.296875 C 189.457031 186.71875 221.863281 182.296875 221.863281 182.296875 C 232.738281 182.242188 254 178.875 260.328125 174.824219 C 268.867188 169.363281 268.886719 154.597656 269.226562 142.929688 C 269.527344 132.304688 267.332031 129.476562 267.332031 129.476562 Z M 266.527344 142.808594 C 264.949219 144.421875 265.511719 145.039062 263.289062 156.210938 C 261.0625 167.378906 238.574219 169.238281 238.574219 169.238281 C 243.027344 159.4375 251.792969 151.121094 251.792969 151.121094 C 234.710938 158.144531 220.945312 171.085938 216.691406 177.625 C 211.558594 178.511719 202.503906 179.601562 189.078125 179.601562 C 172.039062 179.601562 161.484375 177.261719 156.976562 175.976562 C 151.714844 169.097656 138.792969 157.59375 123.050781 151.121094 C 123.050781 151.121094 131.824219 159.4375 136.273438 169.238281 C 136.273438 169.238281 113.785156 167.378906 111.5625 156.210938 C 109.335938 145.042969 109.898438 144.421875 108.320312 142.808594 C 107.882812 141.148438 107.679688 139.464844 107.714844 137.75 C 107.714844 137.75 128.492188 153.605469 187.421875 154.660156 C 246.351562 153.605469 267.128906 137.75 267.128906 137.75 C 267.164062 139.464844 266.964844 141.148438 266.527344 142.808594 Z M 266.527344 142.808594 " fill-opacity="1" fill-rule="nonzero"/></g></svg>