<svg xmlns="http://www.w3.org/2000/svg" xmlns:xlink="http://www.w3.org/1999/xlink" width="500" zoomAndPan="magnify" viewBox="0 0 375 374.999991" height="500" preserveAspectRatio="xMidYMid meet" version="1.0"><defs><g/></defs><g fill="#0a131e" fill-opacity="1"><g transform="translate(40.828127, 199.599992)"><g><path d="M 0.183594 0 L 8.101562 0 L 9.507812 -3.664062 L 18.351562 -3.664062 L 19.757812 0 L 27.710938 0 L 17.648438 -25.898438 L 10.25 -25.898438 Z M 11.0625 -9.136719 L 13.949219 -17.167969 L 16.832031 -9.136719 Z M 11.0625 -9.136719 "/></g></g></g><g fill="#0a131e" fill-opacity="1"><g transform="translate(68.723156, 199.599992)"><g><path d="M 18.203125 0 L 25.675781 0 L 25.675781 -25.898438 L 18.203125 -25.898438 L 18.203125 -16.613281 L 10.210938 -16.613281 L 10.210938 -25.898438 L 2.738281 -25.898438 L 2.738281 0 L 10.210938 0 L 10.210938 -9.730469 L 18.203125 -9.730469 Z M 18.203125 0 "/></g></g></g><g fill="#0a131e" fill-opacity="1"><g transform="translate(97.136133, 199.599992)"><g><path d="M 2.738281 0 L 10.136719 0 L 10.136719 -13.132812 L 15.132812 -6.140625 L 19.980469 -6.140625 L 24.9375 -13.097656 L 24.9375 0 L 32.335938 0 L 32.335938 -25.898438 L 26.269531 -25.898438 L 17.535156 -13.578125 L 8.84375 -25.898438 L 2.738281 -25.898438 Z M 2.738281 0 "/></g></g></g><g fill="#0a131e" fill-opacity="1"><g transform="translate(132.208404, 199.599992)"><g><path d="M 2.738281 0 L 20.902344 0 L 20.902344 -6.105469 L 10.136719 -6.105469 L 10.136719 -10.101562 L 19.496094 -10.101562 L 19.496094 -16.09375 L 10.136719 -16.09375 L 10.136719 -19.867188 L 20.496094 -19.867188 L 20.496094 -25.898438 L 2.738281 -25.898438 Z M 2.738281 0 "/></g></g></g><g fill="#0a131e" fill-opacity="1"><g transform="translate(154.776003, 199.599992)"><g><path d="M 2.738281 0 L 13.726562 0 C 22.085938 0 27.636719 -5.144531 27.636719 -12.949219 C 27.636719 -20.71875 22.085938 -25.898438 13.726562 -25.898438 L 2.738281 -25.898438 Z M 10.210938 -6.695312 L 10.210938 -19.203125 L 13.503906 -19.203125 C 17.460938 -19.203125 20.015625 -16.761719 20.015625 -12.949219 C 20.015625 -9.136719 17.460938 -6.695312 13.503906 -6.695312 Z M 10.210938 -6.695312 "/></g></g></g><g fill="#0a131e" fill-opacity="1"><g transform="translate(183.66993, 199.599992)"><g/></g></g><g fill="#0a131e" fill-opacity="1"><g transform="translate(192.216022, 199.599992)"><g><path d="M 18.203125 0 L 25.675781 0 L 25.675781 -25.898438 L 18.203125 -25.898438 L 18.203125 -16.613281 L 10.210938 -16.613281 L 10.210938 -25.898438 L 2.738281 -25.898438 L 2.738281 0 L 10.210938 0 L 10.210938 -9.730469 L 18.203125 -9.730469 Z M 18.203125 0 "/></g></g></g><g fill="#0a131e" fill-opacity="1"><g transform="translate(220.628999, 199.599992)"><g><path d="M 2.738281 0 L 10.136719 0 L 10.136719 -13.132812 L 15.132812 -6.140625 L 19.980469 -6.140625 L 24.9375 -13.097656 L 24.9375 0 L 32.335938 0 L 32.335938 -25.898438 L 26.269531 -25.898438 L 17.535156 -13.578125 L 8.84375 -25.898438 L 2.738281 -25.898438 Z M 2.738281 0 "/></g></g></g><g fill="#0a131e" fill-opacity="1"><g transform="translate(255.701282, 199.599992)"><g><path d="M 0.183594 0 L 8.101562 0 L 9.507812 -3.664062 L 18.351562 -3.664062 L 19.757812 0 L 27.710938 0 L 17.648438 -25.898438 L 10.25 -25.898438 Z M 11.0625 -9.136719 L 13.949219 -17.167969 L 16.832031 -9.136719 Z M 11.0625 -9.136719 "/></g></g></g><g fill="#0a131e" fill-opacity="1"><g transform="translate(283.596299, 199.599992)"><g><path d="M 2.738281 0 L 10.210938 0 L 10.210938 -25.898438 L 2.738281 -25.898438 Z M 2.738281 0 "/></g></g></g><g fill="#0a131e" fill-opacity="1"><g transform="translate(296.544922, 199.599992)"><g><path d="M 2.738281 0 L 20.902344 0 L 20.902344 -6.105469 L 10.136719 -6.105469 L 10.136719 -10.101562 L 19.496094 -10.101562 L 19.496094 -16.09375 L 10.136719 -16.09375 L 10.136719 -19.867188 L 20.496094 -19.867188 L 20.496094 -25.898438 L 2.738281 -25.898438 Z M 2.738281 0 "/></g></g></g><g fill="#0a131e" fill-opacity="1"><g transform="translate(319.112532, 199.599992)"><g><path d="M 2.738281 0 L 13.726562 0 C 22.085938 0 27.636719 -5.144531 27.636719 -12.949219 C 27.636719 -20.71875 22.085938 -25.898438 13.726562 -25.898438 L 2.738281 -25.898438 Z M 10.210938 -6.695312 L 10.210938 -19.203125 L 13.503906 -19.203125 C 17.460938 -19.203125 20.015625 -16.761719 20.015625 -12.949219 C 20.015625 -9.136719 17.460938 -6.695312 13.503906 -6.695312 Z M 10.210938 -6.695312 "/></g></g></g><g fill="#0a131e" fill-opacity="1"><g transform="translate(77.647431, 241.052019)"><g><path d="M 3.28125 -0.59375 L 3.71875 -3.1875 L 1.125 -3.1875 L 1.421875 -4.96875 L 4 -4.96875 L 4.4375 -7.5625 L 6.21875 -7.5625 L 5.78125 -4.96875 L 8.375 -4.96875 L 8.078125 -3.1875 L 5.5 -3.1875 L 5.0625 -0.59375 Z M 3.28125 -0.59375 "/></g></g></g><g fill="#0a131e" fill-opacity="1"><g transform="translate(95.89241, 241.052019)"><g><path d="M 4.046875 0.140625 C 3.273438 0.140625 2.613281 0.015625 2.0625 -0.234375 C 1.519531 -0.492188 1.113281 -0.847656 0.84375 -1.296875 C 0.582031 -1.753906 0.5 -2.28125 0.59375 -2.875 L 2.734375 -2.875 C 2.679688 -2.507812 2.785156 -2.210938 3.046875 -1.984375 C 3.316406 -1.753906 3.679688 -1.640625 4.140625 -1.640625 C 4.660156 -1.640625 5.109375 -1.78125 5.484375 -2.0625 C 5.867188 -2.34375 6.09375 -2.691406 6.15625 -3.109375 C 6.226562 -3.515625 6.117188 -3.832031 5.828125 -4.0625 C 5.535156 -4.289062 5.109375 -4.40625 4.546875 -4.40625 L 3.546875 -4.40625 L 3.8125 -5.984375 L 4.71875 -5.984375 C 5.207031 -5.984375 5.632812 -6.117188 6 -6.390625 C 6.363281 -6.660156 6.582031 -7.007812 6.65625 -7.4375 C 6.71875 -7.789062 6.648438 -8.070312 6.453125 -8.28125 C 6.253906 -8.5 5.9375 -8.609375 5.5 -8.609375 C 5.207031 -8.609375 4.921875 -8.554688 4.640625 -8.453125 C 4.359375 -8.347656 4.125 -8.195312 3.9375 -8 C 3.75 -7.8125 3.628906 -7.59375 3.578125 -7.34375 L 1.53125 -7.34375 C 1.632812 -7.925781 1.878906 -8.441406 2.265625 -8.890625 C 2.660156 -9.335938 3.144531 -9.6875 3.71875 -9.9375 C 4.300781 -10.195312 4.929688 -10.328125 5.609375 -10.328125 C 6.328125 -10.328125 6.929688 -10.1875 7.421875 -9.90625 C 7.921875 -9.625 8.28125 -9.257812 8.5 -8.8125 C 8.726562 -8.363281 8.800781 -7.875 8.71875 -7.34375 C 8.625 -6.757812 8.367188 -6.296875 7.953125 -5.953125 C 7.535156 -5.609375 7.019531 -5.390625 6.40625 -5.296875 L 6.40625 -5.21875 C 7.09375 -5.125 7.609375 -4.847656 7.953125 -4.390625 C 8.304688 -3.941406 8.429688 -3.394531 8.328125 -2.75 C 8.234375 -2.1875 7.988281 -1.6875 7.59375 -1.25 C 7.195312 -0.8125 6.691406 -0.46875 6.078125 -0.21875 C 5.472656 0.0195312 4.796875 0.140625 4.046875 0.140625 Z M 4.046875 0.140625 "/></g></g></g><g fill="#0a131e" fill-opacity="1"><g transform="translate(113.953541, 241.052019)"><g><path d="M 5.5 -10.34375 C 6.03125 -10.34375 6.53125 -10.253906 7 -10.078125 C 7.46875 -9.898438 7.863281 -9.609375 8.1875 -9.203125 C 8.519531 -8.804688 8.75 -8.28125 8.875 -7.625 C 9 -6.976562 8.976562 -6.179688 8.8125 -5.234375 C 8.625 -4.109375 8.296875 -3.144531 7.828125 -2.34375 C 7.367188 -1.539062 6.800781 -0.925781 6.125 -0.5 C 5.457031 -0.0703125 4.707031 0.140625 3.875 0.140625 C 3.195312 0.140625 2.613281 0.0078125 2.125 -0.25 C 1.644531 -0.507812 1.273438 -0.863281 1.015625 -1.3125 C 0.765625 -1.769531 0.648438 -2.285156 0.671875 -2.859375 L 2.75 -2.859375 C 2.757812 -2.484375 2.875 -2.195312 3.09375 -2 C 3.320312 -1.800781 3.625 -1.703125 4 -1.703125 C 4.675781 -1.703125 5.25 -1.992188 5.71875 -2.578125 C 6.1875 -3.171875 6.507812 -3.984375 6.6875 -5.015625 L 6.609375 -4.90625 C 6.304688 -4.457031 5.910156 -4.113281 5.421875 -3.875 C 4.941406 -3.632812 4.429688 -3.515625 3.890625 -3.515625 C 3.273438 -3.515625 2.75 -3.660156 2.3125 -3.953125 C 1.875 -4.253906 1.554688 -4.660156 1.359375 -5.171875 C 1.160156 -5.679688 1.117188 -6.265625 1.234375 -6.921875 C 1.335938 -7.585938 1.585938 -8.179688 1.984375 -8.703125 C 2.378906 -9.222656 2.878906 -9.628906 3.484375 -9.921875 C 4.085938 -10.210938 4.757812 -10.351562 5.5 -10.34375 Z M 5.421875 -8.65625 C 5.078125 -8.65625 4.75 -8.570312 4.4375 -8.40625 C 4.132812 -8.238281 3.878906 -8.007812 3.671875 -7.71875 C 3.460938 -7.425781 3.332031 -7.101562 3.28125 -6.75 C 3.207031 -6.269531 3.296875 -5.867188 3.546875 -5.546875 C 3.796875 -5.234375 4.160156 -5.078125 4.640625 -5.078125 C 4.984375 -5.078125 5.304688 -5.160156 5.609375 -5.328125 C 5.921875 -5.503906 6.179688 -5.738281 6.390625 -6.03125 C 6.597656 -6.320312 6.734375 -6.640625 6.796875 -6.984375 C 6.867188 -7.460938 6.78125 -7.859375 6.53125 -8.171875 C 6.28125 -8.492188 5.910156 -8.65625 5.421875 -8.65625 Z M 5.421875 -8.65625 "/></g></g></g><g fill="#0a131e" fill-opacity="1"><g transform="translate(132.024613, 241.052019)"><g><path d="M 4.046875 0.140625 C 3.273438 0.140625 2.613281 0.015625 2.0625 -0.234375 C 1.519531 -0.492188 1.113281 -0.847656 0.84375 -1.296875 C 0.582031 -1.753906 0.5 -2.28125 0.59375 -2.875 L 2.734375 -2.875 C 2.679688 -2.507812 2.785156 -2.210938 3.046875 -1.984375 C 3.316406 -1.753906 3.679688 -1.640625 4.140625 -1.640625 C 4.660156 -1.640625 5.109375 -1.78125 5.484375 -2.0625 C 5.867188 -2.34375 6.09375 -2.691406 6.15625 -3.109375 C 6.226562 -3.515625 6.117188 -3.832031 5.828125 -4.0625 C 5.535156 -4.289062 5.109375 -4.40625 4.546875 -4.40625 L 3.546875 -4.40625 L 3.8125 -5.984375 L 4.71875 -5.984375 C 5.207031 -5.984375 5.632812 -6.117188 6 -6.390625 C 6.363281 -6.660156 6.582031 -7.007812 6.65625 -7.4375 C 6.71875 -7.789062 6.648438 -8.070312 6.453125 -8.28125 C 6.253906 -8.5 5.9375 -8.609375 5.5 -8.609375 C 5.207031 -8.609375 4.921875 -8.554688 4.640625 -8.453125 C 4.359375 -8.347656 4.125 -8.195312 3.9375 -8 C 3.75 -7.8125 3.628906 -7.59375 3.578125 -7.34375 L 1.53125 -7.34375 C 1.632812 -7.925781 1.878906 -8.441406 2.265625 -8.890625 C 2.660156 -9.335938 3.144531 -9.6875 3.71875 -9.9375 C 4.300781 -10.195312 4.929688 -10.328125 5.609375 -10.328125 C 6.328125 -10.328125 6.929688 -10.1875 7.421875 -9.90625 C 7.921875 -9.625 8.28125 -9.257812 8.5 -8.8125 C 8.726562 -8.363281 8.800781 -7.875 8.71875 -7.34375 C 8.625 -6.757812 8.367188 -6.296875 7.953125 -5.953125 C 7.535156 -5.609375 7.019531 -5.390625 6.40625 -5.296875 L 6.40625 -5.21875 C 7.09375 -5.125 7.609375 -4.847656 7.953125 -4.390625 C 8.304688 -3.941406 8.429688 -3.394531 8.328125 -2.75 C 8.234375 -2.1875 7.988281 -1.6875 7.59375 -1.25 C 7.195312 -0.8125 6.691406 -0.46875 6.078125 -0.21875 C 5.472656 0.0195312 4.796875 0.140625 4.046875 0.140625 Z M 4.046875 0.140625 "/></g></g></g><g fill="#0a131e" fill-opacity="1"><g transform="translate(150.085746, 241.052019)"><g><path d="M 3.890625 0.140625 C 3.191406 0.140625 2.585938 0.0078125 2.078125 -0.25 C 1.566406 -0.507812 1.1875 -0.863281 0.9375 -1.3125 C 0.695312 -1.769531 0.617188 -2.289062 0.703125 -2.875 L 2.78125 -2.875 C 2.75 -2.488281 2.863281 -2.171875 3.125 -1.921875 C 3.394531 -1.671875 3.742188 -1.546875 4.171875 -1.546875 C 4.671875 -1.546875 5.109375 -1.710938 5.484375 -2.046875 C 5.867188 -2.378906 6.101562 -2.8125 6.1875 -3.34375 C 6.28125 -3.875 6.1875 -4.304688 5.90625 -4.640625 C 5.632812 -4.984375 5.242188 -5.15625 4.734375 -5.15625 C 4.429688 -5.15625 4.128906 -5.09375 3.828125 -4.96875 C 3.535156 -4.84375 3.289062 -4.675781 3.09375 -4.46875 L 1.234375 -4.8125 L 2.609375 -10.1875 L 8.84375 -10.1875 L 8.546875 -8.421875 L 4.109375 -8.421875 L 3.421875 -5.875 L 3.46875 -5.875 C 3.695312 -6.125 4.003906 -6.332031 4.390625 -6.5 C 4.773438 -6.664062 5.191406 -6.75 5.640625 -6.75 C 6.253906 -6.75 6.773438 -6.601562 7.203125 -6.3125 C 7.640625 -6.019531 7.953125 -5.625 8.140625 -5.125 C 8.335938 -4.625 8.378906 -4.046875 8.265625 -3.390625 C 8.160156 -2.710938 7.90625 -2.101562 7.5 -1.5625 C 7.09375 -1.03125 6.578125 -0.613281 5.953125 -0.3125 C 5.335938 -0.0078125 4.648438 0.140625 3.890625 0.140625 Z M 3.890625 0.140625 "/></g></g></g><g fill="#0a131e" fill-opacity="1"><g transform="translate(167.938185, 241.052019)"><g><path d="M 6.09375 -10.1875 L 4.40625 0 L 2.25 0 L 3.5 -7.546875 L 3.40625 -7.546875 C 3.269531 -7.378906 3.007812 -7.210938 2.625 -7.046875 C 2.25 -6.878906 1.78125 -6.796875 1.21875 -6.796875 L 1.5 -8.5 C 1.9375 -8.5 2.332031 -8.59375 2.6875 -8.78125 C 3.039062 -8.976562 3.332031 -9.207031 3.5625 -9.46875 C 3.789062 -9.738281 3.929688 -9.976562 3.984375 -10.1875 Z M 6.09375 -10.1875 "/></g></g></g><g fill="#0a131e" fill-opacity="1"><g transform="translate(183.40556, 241.052019)"><g><path d="M 6.09375 -10.1875 L 4.40625 0 L 2.25 0 L 3.5 -7.546875 L 3.40625 -7.546875 C 3.269531 -7.378906 3.007812 -7.210938 2.625 -7.046875 C 2.25 -6.878906 1.78125 -6.796875 1.21875 -6.796875 L 1.5 -8.5 C 1.9375 -8.5 2.332031 -8.59375 2.6875 -8.78125 C 3.039062 -8.976562 3.332031 -9.207031 3.5625 -9.46875 C 3.789062 -9.738281 3.929688 -9.976562 3.984375 -10.1875 Z M 6.09375 -10.1875 "/></g></g></g><g fill="#0a131e" fill-opacity="1"><g transform="translate(198.872936, 241.052019)"><g><path d="M 4.140625 0.21875 C 2.859375 0.21875 1.925781 -0.242188 1.34375 -1.171875 C 0.769531 -2.097656 0.625 -3.398438 0.90625 -5.078125 C 1.09375 -6.191406 1.414062 -7.140625 1.875 -7.921875 C 2.332031 -8.703125 2.90625 -9.296875 3.59375 -9.703125 C 4.28125 -10.117188 5.046875 -10.328125 5.890625 -10.328125 C 7.171875 -10.328125 8.097656 -9.867188 8.671875 -8.953125 C 9.253906 -8.035156 9.410156 -6.742188 9.140625 -5.078125 C 8.953125 -3.960938 8.628906 -3.007812 8.171875 -2.21875 C 7.710938 -1.425781 7.140625 -0.820312 6.453125 -0.40625 C 5.765625 0.0078125 4.992188 0.21875 4.140625 0.21875 Z M 4.4375 -1.5625 C 5.03125 -1.5625 5.546875 -1.851562 5.984375 -2.4375 C 6.421875 -3.03125 6.738281 -3.910156 6.9375 -5.078125 C 7.132812 -6.234375 7.109375 -7.101562 6.859375 -7.6875 C 6.609375 -8.269531 6.191406 -8.5625 5.609375 -8.5625 C 5.023438 -8.5625 4.507812 -8.269531 4.0625 -7.6875 C 3.613281 -7.101562 3.296875 -6.234375 3.109375 -5.078125 C 2.910156 -3.910156 2.9375 -3.03125 3.1875 -2.4375 C 3.445312 -1.851562 3.863281 -1.5625 4.4375 -1.5625 Z M 4.4375 -1.5625 "/></g></g></g><g fill="#0a131e" fill-opacity="1"><g transform="translate(217.336547, 241.052019)"><g><path d="M 0.328125 -1.796875 L 0.609375 -3.484375 L 5.96875 -10.1875 L 8.671875 -10.1875 L 7.5625 -3.515625 L 8.828125 -3.515625 L 8.546875 -1.796875 L 7.28125 -1.796875 L 6.984375 0 L 4.921875 0 L 5.21875 -1.796875 Z M 5.546875 -3.515625 L 6.265625 -7.828125 L 6.171875 -7.828125 L 2.796875 -3.59375 L 2.78125 -3.515625 Z M 5.546875 -3.515625 "/></g></g></g><g fill="#0a131e" fill-opacity="1"><g transform="translate(235.656064, 241.052019)"><g><path d="M 0.1875 0 L 0.453125 -1.546875 L 4.625 -4.90625 C 5.164062 -5.351562 5.582031 -5.738281 5.875 -6.0625 C 6.175781 -6.394531 6.359375 -6.757812 6.421875 -7.15625 C 6.503906 -7.613281 6.421875 -7.96875 6.171875 -8.21875 C 5.921875 -8.476562 5.570312 -8.609375 5.125 -8.609375 C 4.65625 -8.609375 4.253906 -8.46875 3.921875 -8.1875 C 3.585938 -7.914062 3.378906 -7.535156 3.296875 -7.046875 L 1.25 -7.046875 C 1.363281 -7.710938 1.613281 -8.289062 2 -8.78125 C 2.382812 -9.269531 2.867188 -9.648438 3.453125 -9.921875 C 4.046875 -10.191406 4.695312 -10.328125 5.40625 -10.328125 C 6.132812 -10.328125 6.75 -10.195312 7.25 -9.9375 C 7.75 -9.675781 8.113281 -9.316406 8.34375 -8.859375 C 8.570312 -8.410156 8.632812 -7.894531 8.53125 -7.3125 C 8.46875 -6.925781 8.328125 -6.546875 8.109375 -6.171875 C 7.898438 -5.796875 7.5625 -5.378906 7.09375 -4.921875 C 6.632812 -4.460938 6.003906 -3.914062 5.203125 -3.28125 L 3.46875 -1.828125 L 3.453125 -1.765625 L 7.734375 -1.765625 L 7.453125 0 Z M 0.1875 0 "/></g></g></g><g fill="#0a131e" fill-opacity="1"><g transform="translate(253.304786, 241.052019)"><g><path d="M 0.59375 0 L 6.1875 -8.359375 L 6.21875 -8.421875 L 1.296875 -8.421875 L 1.578125 -10.1875 L 8.734375 -10.1875 L 8.4375 -8.390625 L 2.8125 0 Z M 0.59375 0 "/></g></g></g><g fill="#0a131e" fill-opacity="1"><g transform="translate(270.461573, 241.052019)"><g><path d="M 4.1875 0.140625 C 3.644531 0.140625 3.140625 0.0507812 2.671875 -0.125 C 2.203125 -0.3125 1.800781 -0.601562 1.46875 -1 C 1.144531 -1.40625 0.921875 -1.929688 0.796875 -2.578125 C 0.679688 -3.234375 0.703125 -4.03125 0.859375 -4.96875 C 1.046875 -6.101562 1.367188 -7.070312 1.828125 -7.875 C 2.296875 -8.675781 2.867188 -9.285156 3.546875 -9.703125 C 4.222656 -10.128906 4.972656 -10.34375 5.796875 -10.34375 C 6.472656 -10.34375 7.054688 -10.210938 7.546875 -9.953125 C 8.035156 -9.691406 8.40625 -9.332031 8.65625 -8.875 C 8.914062 -8.425781 9.03125 -7.914062 9 -7.34375 L 6.921875 -7.34375 C 6.921875 -7.726562 6.804688 -8.015625 6.578125 -8.203125 C 6.359375 -8.398438 6.054688 -8.5 5.671875 -8.5 C 4.992188 -8.5 4.421875 -8.203125 3.953125 -7.609375 C 3.492188 -7.023438 3.175781 -6.222656 3 -5.203125 L 3.078125 -5.3125 C 3.378906 -5.757812 3.769531 -6.101562 4.25 -6.34375 C 4.738281 -6.582031 5.253906 -6.703125 5.796875 -6.703125 C 6.410156 -6.703125 6.9375 -6.550781 7.375 -6.25 C 7.8125 -5.957031 8.128906 -5.554688 8.328125 -5.046875 C 8.523438 -4.535156 8.566406 -3.953125 8.453125 -3.296875 C 8.335938 -2.628906 8.082031 -2.035156 7.6875 -1.515625 C 7.289062 -0.992188 6.789062 -0.585938 6.1875 -0.296875 C 5.59375 -0.00390625 4.925781 0.140625 4.1875 0.140625 Z M 4.25 -1.546875 C 4.601562 -1.546875 4.929688 -1.628906 5.234375 -1.796875 C 5.535156 -1.972656 5.789062 -2.203125 6 -2.484375 C 6.207031 -2.773438 6.335938 -3.101562 6.390625 -3.46875 C 6.460938 -3.945312 6.375 -4.34375 6.125 -4.65625 C 5.882812 -4.976562 5.523438 -5.140625 5.046875 -5.140625 C 4.703125 -5.140625 4.375 -5.050781 4.0625 -4.875 C 3.757812 -4.707031 3.503906 -4.476562 3.296875 -4.1875 C 3.085938 -3.90625 2.953125 -3.585938 2.890625 -3.234375 C 2.816406 -2.753906 2.90625 -2.351562 3.15625 -2.03125 C 3.40625 -1.707031 3.769531 -1.546875 4.25 -1.546875 Z M 4.25 -1.546875 "/></g></g></g><g fill="#0a131e" fill-opacity="1"><g transform="translate(288.532639, 241.052019)"><g><path d="M 0.1875 0 L 0.453125 -1.546875 L 4.625 -4.90625 C 5.164062 -5.351562 5.582031 -5.738281 5.875 -6.0625 C 6.175781 -6.394531 6.359375 -6.757812 6.421875 -7.15625 C 6.503906 -7.613281 6.421875 -7.96875 6.171875 -8.21875 C 5.921875 -8.476562 5.570312 -8.609375 5.125 -8.609375 C 4.65625 -8.609375 4.253906 -8.46875 3.921875 -8.1875 C 3.585938 -7.914062 3.378906 -7.535156 3.296875 -7.046875 L 1.25 -7.046875 C 1.363281 -7.710938 1.613281 -8.289062 2 -8.78125 C 2.382812 -9.269531 2.867188 -9.648438 3.453125 -9.921875 C 4.046875 -10.191406 4.695312 -10.328125 5.40625 -10.328125 C 6.132812 -10.328125 6.75 -10.195312 7.25 -9.9375 C 7.75 -9.675781 8.113281 -9.316406 8.34375 -8.859375 C 8.570312 -8.410156 8.632812 -7.894531 8.53125 -7.3125 C 8.46875 -6.925781 8.328125 -6.546875 8.109375 -6.171875 C 7.898438 -5.796875 7.5625 -5.378906 7.09375 -4.921875 C 6.632812 -4.460938 6.003906 -3.914062 5.203125 -3.28125 L 3.46875 -1.828125 L 3.453125 -1.765625 L 7.734375 -1.765625 L 7.453125 0 Z M 0.1875 0 "/></g></g></g></svg>